<svg width="68" height="95" viewBox="0 0 68 95" fill="none" xmlns="http://www.w3.org/2000/svg">
<g clip-path="url(#clip0_33_43)">
<path d="M67.0754 90.4482C67.0754 92.9272 65.069 94.942 62.5899 94.942L4.58501 95.0083C2.61171 95.0083 0.9369 93.7398 0.331646 91.9737C0.174114 91.5177 0.0912027 91.0368 0.0912027 90.5311L0 6.88167C0 4.40261 2.00646 2.38786 4.48551 2.38786L57.7479 2.32982L62.4904 2.32153C64.9695 2.32153 66.9842 4.32799 66.9842 6.80704L67.0754 90.4482Z" fill="url(#paint0_linear_33_43)"/>
<path d="M61.0643 89.9672L6.10229 90.0252C4.76741 90.0252 3.68956 88.9474 3.68956 87.6125L3.60665 9.76691C3.60665 8.43203 4.6845 7.35418 6.01938 7.35418L60.9731 7.29614C62.308 7.29614 63.3859 8.37399 63.3859 9.70887L63.4688 87.5545C63.4771 88.8811 62.3992 89.9672 61.0643 89.9672Z" fill="white"/>
<path d="M53.3453 13.7135L13.2575 13.7632C11.931 13.7632 10.8448 12.6854 10.8448 11.3588L10.8365 4.6761C10.8365 3.34952 11.9144 2.26338 13.241 2.26338L53.337 2.22192C54.6635 2.22192 55.7497 3.29977 55.7497 4.62636L55.758 11.309C55.7497 12.6356 54.6718 13.7135 53.3453 13.7135ZM13.241 3.49047C12.5942 3.49047 12.0636 4.0211 12.0636 4.66781L12.0719 11.3505C12.0719 11.9972 12.6025 12.5278 13.2492 12.5278L53.3453 12.4864C53.992 12.4864 54.5226 11.9557 54.5226 11.309L54.5143 4.62636C54.5143 3.97965 53.9837 3.44901 53.337 3.44901L13.241 3.49047Z" fill="url(#paint1_linear_33_43)"/>
<path d="M52.2094 5.11564L14.7748 5.1571C14.3603 5.1571 14.0286 4.82545 14.0286 4.41089V0.787659C14.0286 0.373102 14.3603 0.0414557 14.7748 0.0414557L52.2011 0C52.6157 0 52.9473 0.331646 52.9473 0.746203V4.36944C52.9556 4.78399 52.6239 5.11564 52.2094 5.11564Z" fill="url(#paint2_linear_33_43)"/>
<path d="M14.808 5.15714L52.1762 5.11568C52.6073 5.11568 52.9556 4.76746 52.9556 4.33632V2.56201L14.0203 2.60347V4.37777C14.0203 4.80891 14.3769 5.15714 14.808 5.15714Z" fill="#58D6F4"/>
<path d="M27.9412 81.2119L24.7076 61.6448L22.0876 70.1598L14.5924 70.1681C14.1364 70.1681 13.7716 69.8033 13.7716 69.3473C13.7716 68.8912 14.1364 68.5264 14.5924 68.5264L20.8854 68.5181L25.2051 54.4978L28.4386 74.1147L32.634 60.6415L34.8643 67.0257L39.8887 54.846L44.7722 74.1644L46.6129 68.0207L52.0021 68.0124C52.4581 68.0124 52.8229 68.3772 52.8229 68.8332C52.8229 69.2892 52.4581 69.654 52.0021 69.654L47.8316 69.6623L44.6396 80.3164L39.5156 60.0529L34.7316 71.6356L32.7169 65.8733L27.9412 81.2119Z" fill="#58D6F4"/>
<path d="M22.3861 43.4872L11.848 43.4955C10.1483 43.4955 8.75543 42.1109 8.75543 40.4112L8.73885 25.6778C8.73885 23.9781 10.1235 22.5852 11.8232 22.5852L22.3612 22.5769C24.0609 22.5769 25.4538 23.9615 25.4538 25.6612L25.4704 40.3946C25.4704 42.0943 24.0858 43.4789 22.3861 43.4872ZM11.8149 23.4806C10.6044 23.4806 9.626 24.4673 9.626 25.6778L9.64258 40.4112C9.64258 41.6217 10.6292 42.6 11.8397 42.6L22.3778 42.5917C23.5883 42.5917 24.5667 41.6051 24.5667 40.3946L24.5501 25.6612C24.5501 24.4507 23.5634 23.4724 22.3529 23.4724L11.8149 23.4806Z" fill="url(#paint3_linear_33_43)"/>
<path d="M17.1046 40.6598C22.0876 40.6515 23.6381 37.7745 23.6381 37.7745C23.4142 37.4926 23.1323 37.2439 22.7509 36.9951C21.4409 36.1411 20.3879 35.7763 19.9485 35.4115C19.5008 35.055 19.252 34.5327 19.252 34.5327L18.9784 34.6985C18.9784 34.6985 18.8126 34.1264 18.9038 33.2558C18.9038 33.2558 19.2935 33.1563 19.5837 31.838C20.048 31.9292 20.5952 30.7519 20.3382 30.3207C20.1724 30.0388 19.9734 30.0637 19.8324 30.1301C19.9734 29.5414 20.6118 26.283 17.0963 26.283C13.5809 26.283 14.2193 29.5414 14.3686 30.1301C14.2276 30.0637 14.0286 30.0388 13.8628 30.3207C13.6058 30.7519 14.1613 31.9292 14.6256 31.838C14.9158 33.1563 15.3137 33.2475 15.3137 33.2475C15.4132 34.1098 15.2391 34.6902 15.2391 34.6902L14.9655 34.5244C14.9655 34.5244 14.7168 35.0384 14.2691 35.4032C13.8213 35.768 12.7767 36.1411 11.4667 36.9951C11.0853 37.2439 10.7951 37.4926 10.5795 37.7745C10.5712 37.7911 12.1299 40.6681 17.1046 40.6598Z" fill="url(#paint4_linear_33_43)"/>
<path d="M49.921 27.2778L29.6326 27.3027C29.2512 27.3027 28.9444 26.9959 28.9444 26.6145V26.4984C28.9444 26.117 29.2512 25.8103 29.6326 25.8103L49.921 25.7854C50.3024 25.7854 50.6092 26.0922 50.6092 26.4736V26.5896C50.6092 26.971 50.2941 27.2778 49.921 27.2778Z" fill="url(#paint5_linear_33_43)"/>
<path d="M42.459 31.1416L29.6326 31.1582C29.2512 31.1582 28.9444 30.8514 28.9444 30.47V30.3539C28.9444 29.9725 29.2512 29.6658 29.6326 29.6658L42.459 29.6492C42.8404 29.6492 43.1472 29.9559 43.1472 30.3373V30.4534C43.1472 30.8348 42.8404 31.1416 42.459 31.1416Z" fill="url(#paint6_linear_33_43)"/>
<path opacity="0.6" d="M56.9187 35.7348L29.6409 35.768C29.2595 35.768 28.9527 35.4612 28.9527 35.0798V34.9638C28.9527 34.5824 29.2595 34.2756 29.6409 34.2756L56.9187 34.2424C57.3001 34.2424 57.6069 34.5492 57.6069 34.9306V35.0467C57.5986 35.4281 57.2918 35.7348 56.9187 35.7348Z" fill="url(#paint7_linear_33_43)"/>
<path opacity="0.6" d="M56.3301 48.6443L10.8282 48.694C10.4386 48.694 10.1152 48.3789 10.1152 47.981V47.9146C10.1152 47.525 10.4303 47.2016 10.8282 47.2016L56.3301 47.1519C56.7198 47.1519 57.0431 47.4669 57.0431 47.8649V47.9312C57.0431 48.3292 56.7198 48.6443 56.3301 48.6443Z" fill="url(#paint8_linear_33_43)"/>
<path opacity="0.6" d="M56.9187 40.2453L29.6409 40.2785C29.2595 40.2785 28.9527 39.9717 28.9527 39.5903V39.4743C28.9527 39.0929 29.2595 38.7861 29.6409 38.7861L56.9187 38.7529C57.3001 38.7529 57.6069 39.0597 57.6069 39.4411V39.5572C57.6069 39.9386 57.3001 40.2453 56.9187 40.2453Z" fill="url(#paint9_linear_33_43)"/>
</g>
<defs>
<linearGradient id="paint0_linear_33_43" x1="-9.28868" y1="34.748" x2="76.3641" y2="62.5782" gradientUnits="userSpaceOnUse">
<stop stop-color="#6CBCFC"/>
<stop offset="0.1713" stop-color="#5EABFC"/>
<stop offset="0.4084" stop-color="#509AFC"/>
<stop offset="0.6698" stop-color="#4890FC"/>
<stop offset="1" stop-color="#458DFC"/>
</linearGradient>
<linearGradient id="paint1_linear_33_43" x1="-5.225" y1="-21.3751" x2="55.7514" y2="7.98961" gradientUnits="userSpaceOnUse">
<stop stop-color="#CFE9FF"/>
<stop offset="1" stop-color="#A1D6FB"/>
</linearGradient>
<linearGradient id="paint2_linear_33_43" x1="14.0191" y1="2.57952" x2="52.9549" y2="2.57952" gradientUnits="userSpaceOnUse">
<stop stop-color="#B0F4FF"/>
<stop offset="1" stop-color="#69DCFC"/>
</linearGradient>
<linearGradient id="paint3_linear_33_43" x1="14.1349" y1="29.2076" x2="23.9156" y2="41.8335" gradientUnits="userSpaceOnUse">
<stop stop-color="#6CBCFC"/>
<stop offset="1" stop-color="#458DFC"/>
</linearGradient>
<linearGradient id="paint4_linear_33_43" x1="13.0741" y1="30.0293" x2="22.8548" y2="42.6553" gradientUnits="userSpaceOnUse">
<stop stop-color="#B0F4FF"/>
<stop offset="0.0994384" stop-color="#A1EFFE"/>
<stop offset="0.2994" stop-color="#88E7FD"/>
<stop offset="0.5095" stop-color="#77E1FD"/>
<stop offset="0.7344" stop-color="#6CDDFC"/>
<stop offset="1" stop-color="#69DCFC"/>
</linearGradient>
<linearGradient id="paint5_linear_33_43" x1="28.9456" y1="26.5508" x2="50.6048" y2="26.5638" gradientUnits="userSpaceOnUse">
<stop stop-color="#6CBCFC"/>
<stop offset="1" stop-color="#458DFC"/>
</linearGradient>
<linearGradient id="paint6_linear_33_43" x1="28.9495" y1="30.4037" x2="43.1463" y2="30.4037" gradientUnits="userSpaceOnUse">
<stop stop-color="#6CBCFC"/>
<stop offset="1" stop-color="#458DFC"/>
</linearGradient>
<linearGradient id="paint7_linear_33_43" x1="28.9542" y1="35.0098" x2="57.6023" y2="35.0098" gradientUnits="userSpaceOnUse">
<stop stop-color="#6CBCFC"/>
<stop offset="1" stop-color="#458DFC"/>
</linearGradient>
<linearGradient id="paint8_linear_33_43" x1="10.1148" y1="47.9273" x2="57.0408" y2="47.9273" gradientUnits="userSpaceOnUse">
<stop stop-color="#6CBCFC"/>
<stop offset="1" stop-color="#458DFC"/>
</linearGradient>
<linearGradient id="paint9_linear_33_43" x1="28.9588" y1="39.5192" x2="57.6069" y2="39.5192" gradientUnits="userSpaceOnUse">
<stop stop-color="#6CBCFC"/>
<stop offset="1" stop-color="#458DFC"/>
</linearGradient>
<clipPath id="clip0_33_43">
<rect width="67.0754" height="95" fill="white"/>
</clipPath>
</defs>
</svg>
